PathFileType	4	(X/Y/Z)	D:\TRACE\v60_Jaco2_6-2-23\BothDRS_Motion1_10-v60.trc
DataRate	CameraRate	NumFrames	NumMarkers	Units	OrigDataRate	OrigDataStartFrame	OrigNumFrames
100.00	100.00	      21	9	mm	100.00	3751	      7500
Frame#	Time	front left toe			Front right toe			aft left toe			aft right toe			Arm			FL body			FR body			AL Body			AR Body			
		X1	Y1	Z1	X2	Y2	Z2	X3	Y3	Z3	X4	Y4	Z4	X5	Y5	Z5	X6	Y6	Z6	X7	Y7	Z7	X8	Y8	Z8	X9	Y9	Z9	

3751	37.500	-198.14261	24.74800	-210.59676	199.38191	24.84038	-272.35501	-108.33183	6.07934	396.80490	239.43033	5.74917	373.42355	34.26447	1122.19348	-618.40515	-88.87536	589.92792	-360.50427	70.42558	585.59784	-380.06546	23.67927	547.13531	576.55206	178.23662	537.26813	559.25311	
3752	37.510	-198.02611	26.30835	-211.39883	199.26704	24.24222	-271.60086	-108.05923	5.50444	396.93652	239.10283	7.27903	372.66925	33.50403	1121.82800	-621.21802	-89.78082	590.53064	-361.33151	69.48145	586.49854	-381.41418	24.35354	548.14331	575.59064	179.12347	538.55725	557.60895	
3753	37.520	-194.27606	30.01023	-211.27435	198.59537	23.67598	-272.62363	-108.68840	3.78456	396.44849	237.62077	10.73784	374.01025	32.30846	1121.10168	-622.98236	-90.19032	591.27295	-362.20203	68.36317	587.11908	-382.08698	24.96633	549.27008	574.75720	179.70427	538.68457	556.04181	
3754	37.530	-189.71460	33.34034	-207.58595	198.08218	23.88714	-272.62405	-109.47871	4.93665	396.22971	234.50902	13.69465	377.66232	30.52314	1120.62842	-623.90088	-90.96377	592.03064	-363.31894	68.27291	587.77100	-383.69534	26.17800	550.09027	573.79163	180.67879	539.38391	554.71289	
3755	37.540	-186.77480	42.03516	-205.88992	197.38428	23.44153	-272.76077	-109.72968	5.31099	395.89383	231.24252	23.09830	378.35464	28.98181	1121.53003	-624.66583	-91.42948	591.95935	-364.11761	67.50485	587.75208	-384.70337	26.08899	550.91174	572.60559	180.69099	540.81110	554.10297	
3756	37.550	-185.90898	51.01657	-206.63922	196.89920	22.91022	-272.88730	-109.88811	4.92200	396.31552	229.94356	33.05831	377.91684	27.48425	1122.95337	-625.60730	-92.03671	591.23004	-364.93741	67.27229	587.39819	-385.68384	26.52094	551.62244	571.84552	182.81116	542.65552	552.69727	
3757	37.560	-186.42087	62.55107	-207.19385	196.31711	22.36692	-273.00601	-110.33893	5.30549	396.18564	231.46263	45.77815	376.09891	25.57141	1123.41235	-626.30695	-92.19535	590.61530	-365.69522	66.78883	586.86340	-387.09430	26.51071	552.13751	571.16553	181.84866	542.34705	552.76001	
3758	37.570	-187.54376	74.47923	-209.43135	195.86205	22.37421	-272.73117	-110.76539	4.99636	396.23541	235.56198	58.17115	373.08554	24.49721	1122.77063	-627.07898	-92.29443	590.18042	-366.31281	66.20852	586.07037	-386.74435	26.33446	552.14032	570.47638	181.87187	542.31561	552.52631	
3759	37.580	-189.55795	87.16856	-211.56165	195.45847	22.15026	-272.88666	-111.10947	4.51310	396.11469	238.85289	70.74085	370.64221	23.67565	1121.54956	-628.33459	-92.74728	589.91577	-366.97458	65.87911	585.87891	-387.04620	25.51111	551.62671	569.58380	182.13860	542.47961	551.04144	
3760	37.590	-190.96904	99.93731	-213.65901	194.81125	21.81844	-273.24969	-113.28516	5.66554	395.71082	241.36726	81.57826	367.88928	24.22755	1120.15320	-629.00739	-92.94361	589.30182	-367.45514	66.04348	585.50360	-387.69232	25.66336	551.11749	569.08258	181.81424	542.39569	550.65472	
3761	37.600	-191.39059	112.00541	-215.30511	194.16483	21.43701	-273.45038	-113.71902	5.82913	395.65091	244.95142	94.69467	364.61505	23.88977	1119.14063	-629.94910	-93.43301	588.79492	-367.84494	64.98396	585.09186	-388.67981	25.26908	551.01703	568.97467	181.12381	542.59674	549.84100	
3762	37.610	-191.25456	123.43401	-216.68523	193.75063	21.22572	-273.42599	-115.26708	6.95537	395.40036	246.59309	106.06460	362.22195	23.39681	1118.41626	-630.56134	-93.73882	587.89191	-368.11691	64.46249	584.47498	-388.34576	25.34068	551.07074	568.15521	180.73148	542.68799	549.41931	
3763	37.620	-191.04260	133.64709	-217.74228	193.20915	21.01278	-273.57147	-115.86715	7.12746	395.21463	247.08943	116.82801	360.06979	23.24201	1118.02600	-631.15967	-94.66807	587.44366	-368.63599	63.98357	583.71594	-388.65634	24.92471	551.71069	568.06390	180.74838	542.79120	549.17145	
3764	37.630	-191.25946	142.87062	-218.76707	192.76831	20.87580	-273.68631	-116.37426	7.21149	395.33182	248.48938	127.10132	358.53207	22.31729	1117.63562	-631.97363	-95.19707	586.73456	-368.87338	64.36910	583.13696	-389.48004	25.03574	552.20142	568.18573	181.20938	543.51495	549.28339	
3765	37.640	-192.51711	150.34967	-219.12370	191.70840	20.54387	-273.72983	-116.91684	7.40750	395.34100	249.65477	134.72650	357.16486	21.51197	1116.52710	-632.73157	-95.60267	586.05212	-368.81201	63.82695	582.74365	-389.79285	24.60920	552.63690	568.02667	180.57251	543.87018	549.11682	
3766	37.650	-193.35292	155.22214	-219.19066	191.21408	20.44555	-273.45059	-117.51147	7.69200	395.37390	250.98224	139.74559	356.06451	20.97738	1115.58032	-633.04358	-95.75766	585.65253	-368.88284	63.16584	582.49463	-390.83582	24.29846	552.74615	567.96545	179.54280	543.73749	548.77869	
3767	37.660	-195.34921	158.21234	-219.13394	190.38203	20.07561	-273.61121	-117.97051	7.88602	395.36218	253.52692	142.40211	355.42355	19.68322	1114.50635	-634.08862	-96.07537	585.28186	-368.84207	63.04153	581.67468	-389.71417	23.89028	552.86462	567.99139	179.34888	543.88397	548.79620	
3768	37.670	-196.05643	158.53714	-218.89487	189.91655	19.82481	-273.62064	-118.89569	8.22120	395.22974	255.37730	141.97072	354.63651	19.25747	1113.74011	-634.38086	-96.53383	585.01257	-368.86707	62.96023	581.56458	-389.82266	23.28731	553.11737	568.06714	178.86021	544.11713	548.78394	
3769	37.680	-196.64722	155.90210	-218.29951	189.11028	19.59509	-273.72543	-119.68736	8.49788	395.17267	255.95998	139.21397	354.28131	19.02536	1113.16406	-634.52539	-96.96459	584.69745	-368.88757	61.65000	581.19635	-389.58420	22.90681	553.51361	568.08258	178.20314	544.41992	548.93781	
3770	37.690	-196.36328	151.33498	-217.78264	188.30923	19.44733	-273.79834	-120.33293	8.70602	395.17212	256.81573	134.98888	354.22498	18.86760	1112.79529	-634.58893	-97.45580	584.52936	-368.82687	61.26889	580.91687	-389.52191	22.54228	553.65387	567.54932	177.57329	544.77966	548.93109	
3771	37.700	-196.05945	146.20880	-217.74637	187.66780	19.24311	-274.06577	-120.79372	8.82902	395.22348	257.65283	130.03391	353.65146	18.82660	1113.00317	-634.54889	-97.90514	584.30347	-368.79022	60.59440	580.63721	-389.89227	21.84359	553.87323	567.60394	177.02724	544.98547	548.99561	
